<svg xmlns="http://www.w3.org/2000/svg" xmlns:xlink="http://www.w3.org/1999/xlink" width="40" zoomAndPan="magnify" viewBox="0 0 30 30.000001" height="40" preserveAspectRatio="xMidYMid meet" version="1.2"><defs><clipPath id="5466388aca"><path d="M 9.09375 3.097656 L 20.703125 3.097656 L 20.703125 25.722656 L 9.09375 25.722656 Z M 9.09375 3.097656 "/></clipPath></defs><g id="889f69cf04"><g clip-rule="nonzero" clip-path="url(#5466388aca)"><path style=" stroke:none;fill-rule:nonzero;fill:#ffffff;fill-opacity:1;" d="M 13.664062 15.019531 C 12.53125 14.65625 11.609375 13.824219 10.945312 12.855469 C 10.398438 12.050781 10.011719 11.164062 9.777344 10.242188 C 9.40625 8.792969 9.398438 7.25 9.683594 5.777344 C 9.8125 5.121094 9.980469 4.472656 10.1875 3.835938 C 10.234375 3.691406 10.269531 3.503906 10.347656 3.371094 C 10.433594 3.222656 10.503906 3.25 10.671875 3.253906 C 11 3.265625 11.332031 3.273438 11.660156 3.28125 C 12.738281 3.304688 13.816406 3.316406 14.898438 3.316406 C 15.976562 3.316406 17.054688 3.304688 18.136719 3.28125 C 18.464844 3.273438 18.792969 3.265625 19.121094 3.253906 C 19.292969 3.25 19.363281 3.222656 19.449219 3.371094 C 19.527344 3.503906 19.5625 3.691406 19.609375 3.835938 C 19.816406 4.472656 19.984375 5.121094 20.113281 5.777344 C 20.140625 5.925781 20.167969 6.078125 20.191406 6.230469 C 20.535156 8.511719 20.171875 10.917969 18.847656 12.855469 C 18.1875 13.824219 17.261719 14.65625 16.128906 15.019531 C 15.726562 15.148438 15.3125 15.210938 14.898438 15.207031 C 14.484375 15.210938 14.070312 15.148438 13.664062 15.019531 Z M 17.007812 15.53125 C 17.273438 15.265625 17.554688 15.019531 17.851562 14.789062 C 18.839844 14.023438 19.617188 12.921875 20.082031 11.746094 C 20.757812 10.03125 20.84375 8.238281 20.527344 6.484375 C 20.382812 5.6875 20.152344 4.898438 19.859375 4.128906 C 19.78125 3.929688 19.703125 3.730469 19.617188 3.535156 C 19.507812 3.285156 19.492188 3.171875 19.207031 3.164062 C 18.453125 3.136719 17.695312 3.121094 16.9375 3.113281 C 16.257812 3.101562 15.578125 3.097656 14.898438 3.097656 C 14.21875 3.097656 13.539062 3.101562 12.855469 3.113281 C 12.101562 3.121094 11.34375 3.136719 10.585938 3.164062 C 10.300781 3.171875 10.289062 3.285156 10.179688 3.535156 C 10.09375 3.730469 10.011719 3.929688 9.9375 4.128906 C 9.125 6.246094 8.816406 8.519531 9.375 10.703125 C 9.464844 11.054688 9.578125 11.402344 9.714844 11.746094 C 10.179688 12.921875 10.957031 14.023438 11.941406 14.789062 C 12.238281 15.019531 12.523438 15.265625 12.789062 15.53125 C 13.539062 16.285156 14.03125 16.945312 14.308594 18.109375 C 14.511719 18.941406 14.601562 20.03125 14.601562 21.597656 C 14.601562 23.46875 14.292969 24.558594 13.953125 24.761719 C 13.429688 25.078125 11.886719 25.296875 11.457031 25.34375 C 11.414062 25.347656 11.375 25.367188 11.339844 25.394531 C 11.269531 25.449219 11.257812 25.554688 11.308594 25.628906 L 11.3125 25.636719 C 11.347656 25.691406 11.410156 25.722656 11.472656 25.722656 L 18.324219 25.722656 C 18.386719 25.722656 18.445312 25.691406 18.484375 25.636719 L 18.488281 25.628906 C 18.539062 25.554688 18.523438 25.449219 18.453125 25.394531 C 18.421875 25.367188 18.378906 25.347656 18.335938 25.34375 C 17.910156 25.296875 16.363281 25.078125 15.84375 24.761719 C 15.5 24.558594 15.195312 23.46875 15.195312 21.597656 C 15.195312 20.164062 15.269531 19.128906 15.4375 18.324219 C 15.707031 17.027344 16.210938 16.328125 17.007812 15.53125 "/></g><path style=" stroke:none;fill-rule:nonzero;fill:#ffde59;fill-opacity:1;" d="M 19.839844 9.613281 C 19.683594 10.761719 19.203125 11.78125 18.589844 12.675781 C 18.257812 13.164062 17.878906 13.582031 17.464844 13.921875 C 17.019531 14.292969 16.535156 14.5625 16.035156 14.722656 C 15.675781 14.835938 15.300781 14.894531 14.925781 14.894531 C 14.917969 14.894531 14.90625 14.894531 14.898438 14.894531 L 14.894531 14.894531 C 14.886719 14.894531 14.878906 14.894531 14.871094 14.894531 C 14.492188 14.894531 14.117188 14.835938 13.761719 14.722656 C 13.257812 14.5625 12.777344 14.292969 12.328125 13.921875 C 11.914062 13.582031 11.539062 13.164062 11.207031 12.675781 C 10.800781 12.085938 10.339844 11.148438 10.085938 10.265625 C 10.042969 10.117188 10.097656 9.957031 10.222656 9.867188 C 10.230469 9.859375 10.238281 9.851562 10.25 9.847656 C 10.777344 9.460938 11.753906 8.914062 12.835938 9.125 C 14.746094 9.496094 15.261719 10.894531 16.457031 10.972656 C 19.425781 11.167969 19.394531 6.359375 17.445312 8.199219 C 17.1875 8.4375 16.945312 6.988281 18.25 6.8125 C 19.175781 6.6875 20.097656 7.648438 19.839844 9.613281 "/></g></svg>